<?xml version="1.0" encoding="UTF-8"?>
<!-- Generator: visioncortex VTracer 0.6.4 - exact brand mark -->
<svg xmlns="http://www.w3.org/2000/svg" width="128" height="128" viewBox="74 63 485 485" role="img" aria-label="Easy Nivesh">
<path d="M0 0 C8.16 5.77 14.81 13.73 16.82 23.71 C16.91 25.91 16.95 28.1 16.96 30.3 C16.96 31.29 16.96 31.29 16.97 32.3 C16.97 34.51 16.98 36.73 16.98 38.94 C16.98 40.52 16.99 42.11 16.99 43.7 C17.01 48.01 17.01 52.32 17.02 56.64 C17.02 59.33 17.02 62.03 17.03 64.73 C17.04 73.18 17.05 81.63 17.06 90.08 C17.06 99.81 17.08 109.55 17.11 119.29 C17.13 126.82 17.14 134.36 17.14 141.89 C17.14 146.39 17.15 150.88 17.16 155.38 C17.18 159.61 17.18 163.85 17.17 168.08 C17.17 169.63 17.18 171.18 17.19 172.72 C17.3 190.85 13.18 207.19 0.26 220.53 C-8.48 228.33 -19.38 233.85 -31.18 234.71 C-32.23 234.81 -32.23 234.81 -33.3 234.9 C-46.96 235.6 -60.63 230.17 -71.18 221.71 C-83.58 210.12 -92.66 194.61 -102.18 180.71 C-103.08 179.41 -103.08 179.41 -103.99 178.08 C-107.24 173.35 -110.47 168.61 -113.71 163.88 C-120.35 154.14 -127.05 144.44 -133.81 134.77 C-134.43 133.89 -135.04 133.01 -135.68 132.1 C-136.25 131.28 -136.82 130.46 -137.41 129.62 C-137.92 128.89 -138.43 128.16 -138.96 127.41 C-140.86 124.77 -140.86 124.77 -144.33 124.04 C-148.13 124.31 -148.13 124.31 -149.86 126.44 C-151.64 129.03 -153.24 131.68 -154.81 134.4 C-155.41 135.39 -156.01 136.38 -156.63 137.4 C-157.88 139.47 -159.12 141.55 -160.35 143.63 C-163.14 148.32 -166 152.95 -168.87 157.59 C-169.41 158.45 -169.94 159.32 -170.49 160.22 C-200.42 208.56 -237.75 246.43 -294.45 260.26 C-311.08 264.11 -328.45 263.82 -345.18 260.71 C-345.84 260.59 -346.49 260.47 -347.16 260.35 C-374.17 255.3 -398.43 241.54 -414.96 219.33 C-426.44 202.52 -431.21 181.35 -427.46 161.28 C-421 132.09 -400.83 108.71 -376.18 92.71 C-361.11 83.25 -345.61 76.38 -328.18 72.71 C-327.41 72.53 -326.63 72.36 -325.84 72.17 C-303.65 67.31 -279.58 70.94 -260.24 82.91 C-253.03 87.73 -246.82 93.31 -242.18 100.71 C-241.54 101.68 -241.54 101.68 -240.88 102.68 C-236.41 110.71 -236.87 121.4 -239.03 130.12 C-244.78 145.2 -255.9 153.34 -269.75 160.4 C-270.61 160.85 -271.48 161.3 -272.38 161.77 C-280.07 165.74 -287.88 169.45 -295.69 173.17 C-303.45 176.87 -311.17 180.64 -318.88 184.44 C-320.03 185 -321.18 185.57 -322.36 186.15 C-327.08 188.48 -331.79 190.8 -336.5 193.13 C-340 194.86 -343.5 196.59 -347.01 198.31 C-348.07 198.84 -349.14 199.37 -350.24 199.92 C-351.23 200.4 -352.21 200.89 -353.23 201.39 C-354.09 201.81 -354.96 202.24 -355.85 202.68 C-357.96 203.61 -359.92 204.24 -362.18 204.71 C-362.18 205.37 -362.18 206.03 -362.18 206.71 C-361.04 207.08 -361.04 207.08 -359.87 207.46 C-355.93 208.8 -352.05 210.24 -348.16 211.71 C-328.77 218.22 -307.67 215.54 -289.48 206.65 C-251.57 186.95 -230.12 149.06 -211.9 112.11 C-200.37 88.77 -188.31 68.4 -163 58.65 C-147.19 53.92 -130.3 56.03 -115.56 63.21 C-95.67 75.09 -84.14 96.11 -72.96 115.62 C-71 119.03 -69.04 122.42 -67.07 125.82 C-64.41 130.41 -61.75 135 -59.11 139.6 C-58.57 140.54 -58.02 141.48 -57.47 142.45 C-56.67 143.85 -55.9 145.27 -55.18 146.71 C-55.18 145.79 -55.18 145.79 -55.18 144.85 C-55.12 129.87 -55.04 114.88 -54.95 99.9 C-54.9 92.65 -54.86 85.41 -54.84 78.16 C-54.81 71.84 -54.78 65.52 -54.73 59.2 C-54.71 55.86 -54.69 52.52 -54.69 49.18 C-54.68 45.44 -54.65 41.69 -54.62 37.95 C-54.62 36.86 -54.62 35.76 -54.62 34.63 C-54.47 22.59 -51.31 13.73 -43.18 4.71 C-31.37 -5.58 -13.78 -8.13 0 0 Z " fill="#31F7AF" transform="translate(522.18359375,174.2890625)"/>
<path d="M0 0 C8.16 5.77 14.81 13.73 16.82 23.71 C16.91 25.91 16.95 28.1 16.96 30.3 C16.96 30.96 16.96 31.62 16.97 32.3 C16.97 34.51 16.98 36.73 16.98 38.94 C16.98 40.52 16.99 42.11 16.99 43.7 C17.01 48.01 17.01 52.32 17.02 56.64 C17.02 59.33 17.02 62.03 17.03 64.73 C17.04 73.18 17.05 81.63 17.06 90.08 C17.06 99.81 17.08 109.55 17.11 119.29 C17.13 126.82 17.14 134.36 17.14 141.89 C17.14 146.39 17.15 150.88 17.16 155.38 C17.18 159.61 17.18 163.85 17.17 168.08 C17.17 169.63 17.18 171.18 17.19 172.72 C17.3 190.85 13.18 207.19 0.26 220.53 C-8.48 228.33 -19.38 233.85 -31.18 234.71 C-32.23 234.81 -32.23 234.81 -33.3 234.9 C-45.32 235.51 -57.25 231.26 -67.18 224.71 C-67.84 224.05 -68.5 223.39 -69.18 222.71 C-68.81 220.59 -68.81 220.59 -68.18 218.71 C-66.88 218.68 -66.88 218.68 -65.56 218.65 C-60.7 217.3 -58.69 215.01 -56.18 210.71 C-53.48 201.3 -53.93 191.32 -54 181.63 C-54.01 179.94 -54.01 178.25 -54.02 176.56 C-54.03 172.94 -54.04 169.32 -54.06 165.71 C-54.1 159.98 -54.11 154.26 -54.12 148.53 C-54.16 134.32 -54.21 120.11 -54.27 105.89 C-54.32 94.83 -54.36 83.77 -54.38 72.71 C-54.4 67.02 -54.42 61.34 -54.46 55.65 C-54.48 52.11 -54.48 48.57 -54.49 45.03 C-54.49 43.4 -54.5 41.76 -54.51 40.13 C-54.64 26 -52.97 15.57 -43.18 4.71 C-31.37 -5.58 -13.78 -8.13 0 0 Z " fill="#95FA65" transform="translate(522.18359375,174.2890625)"/>
<path d="M0 0 C0.33 -1.65 0.66 -3.3 1 -5 C3.98 -1.43 6.42 2.21 8.76 6.23 C9.11 6.83 9.45 7.43 9.81 8.04 C10.92 9.94 12.02 11.85 13.12 13.75 C14.2 15.6 15.28 17.45 16.36 19.29 C17.09 20.56 17.82 21.83 18.54 23.1 C20.45 26.48 22.45 29.68 24.74 32.82 C33.58 45.39 33.43 57.39 33.25 72.38 C33.27 74.71 33.28 77.04 33.31 79.38 C33.44 107.78 33.44 107.78 25.88 115.55 C23.34 117.51 21.16 117.85 18 118 C17.34 118.66 16.68 119.32 16 120 C12.14 117.13 9.11 113.98 6.19 110.19 C5.73 109.59 5.26 109 4.79 108.39 C-2.52 98.87 -9.22 88.9 -16 79 C-16.6 78.13 -17.19 77.26 -17.81 76.37 C-21.05 71.64 -24.29 66.9 -27.52 62.16 C-30.7 57.51 -33.89 52.85 -37.1 48.21 C-39.3 45.04 -41.45 41.84 -43.59 38.63 C-44.83 36.79 -46.07 34.96 -47.31 33.12 C-48.17 31.81 -48.17 31.81 -49.05 30.47 C-52.41 25.53 -52.41 25.53 -57.42 22.43 C-58.27 22.29 -59.12 22.15 -60 22 C-54.31 9.78 -45.58 2.09 -33 -3 C-21.87 -6.96 -10.49 -5.25 0 0 Z " fill="#52F98C" transform="translate(436,276)"/>
<path d="M0 0 C1.03 0.45 2.06 0.91 3.12 1.38 C3.74 1.91 4.36 2.45 5 3 C5.12 5.6 5.12 5.6 5 8 C-3.42 12.87 -11.9 17.52 -20.62 21.81 C-27.66 25.28 -34.57 28.9 -41.44 32.69 C-50.35 37.6 -59.34 42.34 -68.38 47 C-69 47.32 -69.62 47.64 -70.26 47.97 C-76.82 51.36 -83.39 54.72 -90 58 C-91.05 45.19 -85.85 34.86 -78 25 C-77.22 24.02 -76.45 23.03 -75.64 22.02 C-59.11 2.38 -24.58 -10.82 0 0 Z " fill="#020504" transform="translate(230,288)"/>
<path d="M0 0 C0.66 0.33 1.32 0.66 2 1 C-4.98 12.27 -12.04 23.4 -20 34 C-20.43 34.58 -20.86 35.15 -21.31 35.74 C-30.03 47.29 -39.65 57.89 -50 68 C-50.66 67.34 -51.32 66.68 -52 66 C-47.13 60.27 -41.99 54.89 -36.62 49.62 C-35.2 48.22 -33.77 46.82 -32.35 45.41 C-31.73 44.81 -31.11 44.2 -30.47 43.57 C-28.91 42.05 -28.91 42.05 -28 40 C-27.34 40 -26.68 40 -26 40 C-25.75 39.3 -25.5 38.6 -25.25 37.88 C-23.41 33.65 -20.91 30.11 -18 26.56 C-16.4 24.51 -15.18 22.64 -13.94 20.38 C-12.34 17.59 -11.18 16.18 -9 14 C-8.03 12.31 -7.06 10.62 -6.12 8.92 C-4.29 5.79 -2.14 2.92 0 0 Z " fill="#32EE75" transform="translate(353,328)"/>
<path d="M0 0 C1.32 0.33 2.64 0.66 4 1 C-14.48 10.84 -33.15 20.24 -52.06 29.21 C-53.4 29.84 -53.4 29.84 -54.77 30.49 C-55.63 30.9 -56.49 31.31 -57.38 31.73 C-60.95 33.46 -64.47 35.27 -68 37.09 C-70 38 -70 38 -72 38 C-72 37.34 -72 36.68 -72 36 C-63.55 31.72 -55.07 27.53 -46.5 23.5 C-40.29 20.57 -34.09 17.61 -27.94 14.56 C-27.26 14.23 -26.59 13.9 -25.9 13.56 C-23.24 12.24 -21.11 11.11 -19 9 C-17.68 9 -16.36 9 -15 9 C-14.67 8.01 -14.34 7.02 -14 6 C-13.36 5.9 -12.72 5.79 -12.06 5.69 C-7.94 4.76 -3.99 3.38 0 2 C0 1.34 0 0.68 0 0 Z " fill="#10F3C7" transform="translate(234,340)"/>
<path d="M0 0 C0.5 0.99 0.5 0.99 1 2 C0.36 1.86 -0.28 1.71 -0.94 1.56 C-4.95 0.82 -8.93 0.33 -13 0 C-13.96 -0.08 -14.91 -0.16 -15.9 -0.24 C-24.82 -0.64 -31.12 1.55 -37.81 7.5 C-38.53 8.32 -39.26 9.15 -40 10 C-40.87 10.78 -41.73 11.57 -42.62 12.38 C-45.44 15.49 -46.55 18.1 -48 22 C-48.66 22 -49.32 22 -50 22 C-49.06 14.76 -44.17 8.78 -38.79 4.06 C-27.37 -3.94 -12.92 -6.02 0 0 Z " fill="#DCE95F" transform="translate(520,173)"/>
<path d="M0 0 C0.59 0.2 1.18 0.4 1.79 0.61 C1.13 1 0.47 1.38 -0.22 1.78 C-4.81 4.49 -9.09 7.21 -13.21 10.61 C-13.79 10.87 -14.38 11.13 -14.99 11.4 C-18.01 13.05 -20.35 15.32 -22.83 17.67 C-23.9 18.67 -24.96 19.66 -26.03 20.65 C-26.56 21.15 -27.09 21.65 -27.64 22.16 C-29.95 24.3 -32.3 26.39 -34.64 28.48 C-37.94 31.44 -41.13 34.43 -44.21 37.61 C-42.03 32.85 -38.74 29.42 -35.21 25.61 C-34.5 24.83 -33.78 24.05 -33.05 23.25 C-26.14 16.01 -18.4 10.29 -10.21 4.61 C-9.35 4 -8.49 3.4 -7.61 2.77 C-2.78 -0.49 -2.78 -0.49 0 0 Z " fill="#03E2CF" transform="translate(156.20703125,262.390625)"/>
<path d="M0 0 C3.96 0.71 7.72 1.79 11.56 3 C19.09 5.39 19.09 5.39 26.89 6.13 C27.83 6.13 28.76 6.14 29.73 6.14 C30.71 6.13 31.68 6.13 32.69 6.12 C33.64 6.13 34.6 6.13 35.58 6.14 C41.47 6.13 47.16 5.76 53 5 C53 5.66 53 6.32 53 7 C34.04 9.97 17.18 10.68 0 1 C0 0.67 0 0.34 0 0 Z " fill="#11E6B1" transform="translate(163,383)"/>
<path d="M0 0 C1.6 -0.03 3.21 -0.05 4.81 -0.06 C5.71 -0.07 6.6 -0.09 7.52 -0.1 C10 0 10 0 13 1 C14.6 1.2 16.21 1.36 17.81 1.5 C20.55 1.75 23.17 2.03 25.88 2.56 C30.06 3.15 34.17 2.97 38.39 2.84 C41 3 41 3 43 5 C12.67 5.62 12.67 5.62 0 2 C0 1.34 0 0.68 0 0 Z " fill="#0FECBE" transform="translate(167,431)"/>
<path d="M0 0 C0 0.33 0 0.66 0 1 C-0.86 1.04 -0.86 1.04 -1.73 1.08 C-4.3 1.19 -6.87 1.31 -9.44 1.44 C-10.34 1.48 -11.23 1.52 -12.16 1.56 C-13.01 1.6 -13.87 1.64 -14.75 1.68 C-15.54 1.72 -16.33 1.76 -17.14 1.79 C-19.01 1.81 -19.01 1.81 -20 3 C-23.06 3.66 -26.12 4.24 -29.19 4.81 C-33.26 5.58 -37.1 6.6 -41 8 C-41.66 7.34 -42.32 6.68 -43 6 C-29.83 -1.18 -14.56 -0.41 0 0 Z " fill="#15C29E" transform="translate(225,245)"/>
<path d="M0 0 C0.66 0 1.32 0 2 0 C2.47 1.09 2.95 2.19 3.44 3.31 C7.62 11.65 14.07 18.58 21.2 24.5 C23.63 26.52 25.8 28.73 28 31 C15.77 26.87 5.66 13.15 0 2 C0 1.34 0 0.68 0 0 Z " fill="#05E4D1" transform="translate(103,384)"/>
<path d="M0 0 C0.66 0.33 1.32 0.66 2 1 C-28.21 17 -28.21 17 -31 17 C-31 16.34 -31 15.68 -31 15 C-22.91 10.91 -14.8 6.85 -6.62 2.94 C-5.99 2.63 -5.35 2.32 -4.7 2 C-3.16 1.27 -1.58 0.63 0 0 Z " fill="#04F5D4" transform="translate(193,361)"/>
<path d="M0 0 C-1.18 0.56 -2.35 1.11 -3.56 1.69 C-6.4 3.09 -8.92 4.59 -11.44 6.5 C-14.79 9.01 -18.32 10.61 -22.18 12.2 C-23.98 12.86 -23.98 12.86 -25 14 C-26.67 14.04 -28.33 14.04 -30 14 C-25.32 10.35 -20.18 7.62 -15 4.75 C-14 4.18 -13 3.62 -11.98 3.03 C-10.53 2.23 -10.53 2.23 -9.06 1.42 C-8.19 0.93 -7.31 0.44 -6.41 -0.06 C-3.73 -1.11 -2.64 -1.02 0 0 Z " fill="#04D9C0" transform="translate(188,323)"/>
<path d="M0 0 C3.74 4.3 6.34 9 9 14 C6.02 12.59 3.39 10.95 0.69 9.06 C-3.1 6.5 -6.74 4.63 -11 3 C-6.82 1.61 -4.87 3.18 -1 5 C-0.67 3.35 -0.34 1.7 0 0 Z " fill="#85ED67" transform="translate(437,271)"/>
<path d="M0 0 C0.66 0.33 1.32 0.66 2 1 C-0.06 3.73 -2.12 6.46 -4.19 9.19 C-4.77 9.96 -5.34 10.73 -5.94 11.52 C-9.07 15.64 -12.22 19.45 -16 23 C-16 19.07 -14.61 17.84 -12 15 C-11.34 15 -10.68 15 -10 15 C-9.75 14.3 -9.5 13.6 -9.25 12.88 C-7.04 7.79 -4.05 3.76 0 0 Z " fill="#31E769" transform="translate(337,353)"/>
<path d="M0 0 C0.66 0.66 1.32 1.32 2 2 C-1.3 7.28 -4.6 12.56 -8 18 C-8.66 17.01 -9.32 16.02 -10 15 C-9.67 14.34 -9.34 13.68 -9 13 C-8.34 13 -7.68 13 -7 13 C-6.73 12.3 -6.46 11.6 -6.19 10.88 C-4.93 7.84 -3.5 4.93 -2 2 C-1.34 2 -0.68 2 0 2 C0 1.34 0 0.68 0 0 Z " fill="#3CEA80" transform="translate(372,297)"/>
<path d="M0 0 C0 0.66 0 1.32 0 2 C-2.23 3.13 -4.46 4.25 -6.69 5.38 C-7.31 5.69 -7.94 6.01 -8.58 6.34 C-12 8.05 -15.42 9.64 -19 11 C-16.54 6.9 -13.12 5.23 -8.94 3.25 C-8.3 2.93 -7.66 2.62 -7.01 2.29 C-2.3 0 -2.3 0 0 0 Z " fill="#03EECC" transform="translate(184,289)"/>
<path d="M0 0 C-3.13 2.53 -6.3 4.42 -10 6 C-10.99 5.67 -11.98 5.34 -13 5 C-8.62 1.56 -5.69 -0.32 0 0 Z " fill="#06E5C3" transform="translate(207,356)"/>
<path d="M0 0 C3.63 1.98 7.26 3.96 11 6 C11 6.66 11 7.32 11 8 C6.89 6.55 3.5 4.6 0 2 C0 1.34 0 0.68 0 0 Z " fill="#03E3C9" transform="translate(132,415)"/>
<path d="M0 0 C0.66 0.33 1.32 0.66 2 1 C-0.64 3.97 -3.28 6.94 -6 10 C-6.33 9.34 -6.66 8.68 -7 8 C-6.34 7.01 -5.68 6.02 -5 5 C-4.34 5 -3.68 5 -3 5 C-3 4.01 -3 3.02 -3 2 C-2.01 1.34 -1.02 0.68 0 0 Z " fill="#65E74E" transform="translate(527,386)"/>
<path d="M0 0 C0.54 0.23 1.07 0.45 1.62 0.69 C0.97 0.69 0.31 0.69 -0.38 0.69 C-0.38 1.35 -0.38 2.01 -0.38 2.69 C-2.35 3.35 -4.34 4.01 -6.38 4.69 C-7.03 4.03 -7.69 3.37 -8.38 2.69 C-2.96 -0.39 -2.96 -0.39 0 0 Z " fill="#09DAB6" transform="translate(190.375,248.3125)"/>
<path d="M0 0 C1.39 4.18 -0.18 6.13 -2 10 C-2.66 10 -3.32 10 -4 10 C-3.43 6.04 -2.19 3.33 0 0 Z " fill="#D0DD5D" transform="translate(474,185)"/>
<path d="M0 0 C0.66 0.33 1.32 0.66 2 1 C1.81 2.81 1.81 2.81 1 5 C-1.56 6.75 -1.56 6.75 -4 8 C-2.88 5.03 -1.78 2.67 0 0 Z " fill="#32E476" transform="translate(292,321)"/>
<path d="M0 0 C0.99 0.33 1.98 0.66 3 1 C1.35 3.64 -0.3 6.28 -2 9 C-3 5 -3 5 -1.56 2.25 C-1.05 1.51 -0.53 0.76 0 0 Z " fill="#2FEC80" transform="translate(360,315)"/>
<path d="M0 0 C0.99 0.66 1.98 1.32 3 2 C-3.75 4 -3.75 4 -6 4 C-6 3.34 -6 2.68 -6 2 C-3.19 0.88 -3.19 0.88 0 0 Z " fill="#0AEFC1" transform="translate(200,283)"/>
</svg>
